<?xml version="1.0" encoding="UTF-8" standalone="no"?>
<svg width="20px" height="20px" viewBox="0 0 111 111" version="1.1" xmlns="http://www.w3.org/2000/svg" xmlns:xlink="http://www.w3.org/1999/xlink">
    <!-- Generator: Sketch 3.6.1 (26313) - http://www.bohemiancoding.com/sketch -->
    <title>logo-surf-and-paddle</title>
    <desc>Created with Sketch.</desc>
    <defs></defs>
    <g id="Page-1" stroke="none" stroke-width="1" fill="none" fill-rule="evenodd">
        <g id="logo-surf-and-paddle" fill="#073453">
            <path d="M55.5,103.6 L55.5,103.6 C82.0648965,103.6 103.6,82.0648965 103.6,55.5 C103.6,28.9351035 82.0648965,7.4 55.5,7.4 C28.9351035,7.4 7.4,28.9351035 7.4,55.5 C7.4,82.0648965 28.9351035,103.6 55.5,103.6 L55.5,103.6 Z M55.5,111 L55.5,111 C24.8481964,111 0,86.1518036 0,55.5 C0,24.8481964 24.8481964,0 55.5,0 C86.1518036,0 111,24.8481964 111,55.5 C111,86.1518036 86.1518036,111 55.5,111 L55.5,111 Z" id="Oval-1"></path>
            <path d="M32.497568,65.0685675 C32.497568,65.0685675 55.5,2.08572316 109,58.428582 C96.8327416,137.78586 4,113.052857 4,67.623765 C57.5,129.117335 86.7057113,25.1908557 32.497568,65.0685675 Z" id="Path-1"></path>
        </g>
    </g>
</svg>
